<svg width="759" height="759" viewBox="0 0 759 759" fill="none" xmlns="http://www.w3.org/2000/svg">
<path d="M573 545C556 629.5 492.127 702 401 702C309.873 702 236 629.246 236 539.5C236 449.754 309.873 377 401 377C593 377 587.284 474 573 545Z" fill="#C53030"/>
<path d="M240.154 353C240.154 489.69 270.245 552 248.154 552C226.062 552 175.154 452.69 175.154 316C175.154 179.31 226.062 57 248.154 57C270.245 57 240.154 216.31 240.154 353Z" fill="white"/>
<path d="M240.154 353C240.154 489.69 270.245 552 248.154 552C226.062 552 175.154 452.69 175.154 316C175.154 179.31 226.062 57 248.154 57C270.245 57 240.154 216.31 240.154 353Z" fill="#C53030"/>
<path d="M299.22 379.709C279.016 514.898 299.567 580.971 277.718 577.706C255.869 574.44 220.199 468.697 240.403 333.508C260.607 198.319 329.035 84.8775 350.884 88.1428C372.732 91.4081 319.424 244.52 299.22 379.709Z" fill="#C53030"/>
<g style="mix-blend-mode:overlay">
<path d="M0 87C0 38.9512 38.9512 0 87 0H672C720.049 0 759 38.9512 759 87V672C759 720.049 720.049 759 672 759H87C38.9512 759 0 720.049 0 672V87Z" fill="white"/>
</g>
</svg>
