<svg width="408" height="645" viewBox="0 0 408 645" fill="none" xmlns="http://www.w3.org/2000/svg">
<path d="M398 488C381 572.5 317.127 645 226 645C134.873 645 61 572.246 61 482.5C61 392.754 134.873 320 226 320C418 320 412.284 417 398 488Z" fill="#C53030"/>
<path d="M65.1536 296C65.1536 432.69 95.245 495 73.1536 495C51.0623 495 0.153651 395.69 0.153651 259C0.153651 122.31 51.0623 0 73.1536 0C95.245 0 65.1536 159.31 65.1536 296Z" fill="white"/>
<path d="M65.1536 296C65.1536 432.69 95.245 495 73.1536 495C51.0623 495 0.153651 395.69 0.153651 259C0.153651 122.31 51.0623 0 73.1536 0C95.245 0 65.1536 159.31 65.1536 296Z" fill="#C53030"/>
<path d="M124.22 322.709C104.016 457.898 124.567 523.971 102.718 520.706C80.8693 517.44 45.1988 411.697 65.4029 276.508C85.607 141.319 154.035 27.8775 175.884 31.1428C197.732 34.4081 144.424 187.52 124.22 322.709Z" fill="#C53030"/>
</svg>
