<svg width="408" height="645" viewBox="0 0 408 645" fill="none" xmlns="http://www.w3.org/2000/svg">
<path d="M405 482.5C388 567 317.127 645 226 645C134.873 645 61 572.246 61 482.5C61 392.754 134.873 320 226 320C418 320 411 390 405 482.5Z" fill="white"/>
<path d="M65.1536 296C65.1536 432.69 95.245 495 73.1536 495C51.0623 495 0.153651 395.69 0.153651 259C0.153651 122.31 51.0623 0 73.1536 0C95.245 0 65.1536 159.31 65.1536 296Z" fill="white"/>
<path d="M65.1536 296C65.1536 432.69 95.245 495 73.1536 495C51.0623 495 0.153651 395.69 0.153651 259C0.153651 122.31 51.0623 0 73.1536 0C95.245 0 65.1536 159.31 65.1536 296Z" fill="white"/>
<path d="M126 345C126 481.69 156.091 544 134 544C111.909 544 61 444.69 61 308C61 171.31 111.909 49 134 49C156.091 49 126 208.31 126 345Z" fill="white"/>
</svg>
